HIERARCHY
ROOT ROOT
{
	OFFSET 0.000000 56.020000 -5.659234
	CHANNELS 6 Xposition Yposition Zposition Xrotation Yrotation Zrotation 
	JOINT C_spine0001_bind_JNT
	{
		OFFSET 0.000000 1.618999 0.000000
		CHANNELS 3 Xrotation Yrotation Zrotation
		JOINT C_spine0002_bind_JNT
		{
			OFFSET 0.000000 4.942001 0.000001
			CHANNELS 3 Xrotation Yrotation Zrotation
			JOINT C_spine0003_bind_JNT
			{
				OFFSET 0.000000 4.942001 -0.000000
				CHANNELS 3 Xrotation Yrotation Zrotation
				JOINT C_neck0001_bind_JNT
				{
					OFFSET 0.000000 17.026009 -0.000000
					CHANNELS 3 Xrotation Yrotation Zrotation
					JOINT C_neck0002_bind_JNT
					{
						OFFSET 0.000000 3.249985 0.000000
						CHANNELS 3 Xrotation Yrotation Zrotation
						JOINT C_head_bind_JNT
						{
							OFFSET 0.000000 5.278008 0.000000
							CHANNELS 3 Xrotation Yrotation Zrotation
							End Site
							{
								OFFSET 0.000000 0.000000 0.000000
							}
						}
					}
				}
				JOINT L_clavicle_bind_JNT
				{
					OFFSET 4.590000 12.067001 0.834000
					CHANNELS 3 Xrotation Yrotation Zrotation
					JOINT L_armUpper0001_bind_JNT
					{
						OFFSET 7.812635 0.512001 -3.452945
						CHANNELS 3 Xrotation Yrotation Zrotation
						JOINT L_armLower0001_bind_JNT
						{
							OFFSET 15.265892 -6.552116 -0.058157
							CHANNELS 3 Xrotation Yrotation Zrotation
							JOINT L_hand0001_bind_JNT
							{
								OFFSET 14.747667 -6.369995 5.049225
								CHANNELS 3 Xrotation Yrotation Zrotation
								End Site
								{
									OFFSET 0.000000 0.000000 0.000000
								}
							}
						}
					}
				}
				JOINT R_clavicle_bind_JNT
				{
					OFFSET -4.590000 12.067001 0.834000
					CHANNELS 3 Xrotation Yrotation Zrotation
					JOINT R_armUpper0001_bind_JNT
					{
						OFFSET -7.812635 0.512001 -3.452945
						CHANNELS 3 Xrotation Yrotation Zrotation
						JOINT R_armLower0001_bind_JNT
						{
							OFFSET -15.265890 -6.552124 -0.058160
							CHANNELS 3 Xrotation Yrotation Zrotation
							JOINT R_hand0001_bind_JNT
							{
								OFFSET -14.746784 -6.369629 5.048937
								CHANNELS 3 Xrotation Yrotation Zrotation
								End Site
								{
									OFFSET 0.000000 0.000000 0.000000
								}
							}
						}
					}
				}
			}
		}
	}
	JOINT C_pelvis0001_bind_JNT
	{
		OFFSET -0.000000 0.000000 0.000000
		CHANNELS 3 Xrotation Yrotation Zrotation
		JOINT L_legUpper0001_bind_JNT
		{
			OFFSET 6.599999 -6.027000 0.539000
			CHANNELS 3 Xrotation Yrotation Zrotation
			JOINT L_legLower0001_bind_JNT
			{
				OFFSET -0.140713 -19.187443 0.040261
				CHANNELS 3 Xrotation Yrotation Zrotation
				JOINT L_foot0001_bind_JNT
				{
					OFFSET -0.132215 -18.028637 -1.138370
					CHANNELS 3 Xrotation Yrotation Zrotation
					JOINT L_foot0002_bind_JNT
					{
						OFFSET 0.007014 -4.693133 9.886524
						CHANNELS 3 Xrotation Yrotation Zrotation
						End Site
						{
							OFFSET 0.000000 0.000000 0.000000
						}
					}
				}
			}
		}
		JOINT R_legUpper0001_bind_JNT
		{
			OFFSET -6.599999 -6.027000 0.539000
			CHANNELS 3 Xrotation Yrotation Zrotation
			JOINT R_legLower0001_bind_JNT
			{
				OFFSET 0.140710 -19.187164 0.040550
				CHANNELS 3 Xrotation Yrotation Zrotation
				JOINT R_foot0001_bind_JNT
				{
					OFFSET 0.132215 -18.028633 -1.138362
					CHANNELS 3 Xrotation Yrotation Zrotation
					JOINT R_foot0002_bind_JNT
					{
						OFFSET -0.007014 -4.693128 9.886505
						CHANNELS 3 Xrotation Yrotation Zrotation
						End Site
						{
							OFFSET 0.000000 0.000000 0.000000
						}
					}
				}
			}
		}
	}
}
MOTION
Frames: 6
Frame Time: 0.033333
0.000000 48.967663 0.000000 0.007553 1.522088 -0.005021 -0.800466 -3.374272 1.081355 4.349410 2.398177 0.202857 2.166658 2.531538 0.788154 1.557946 -0.195864 -0.298228 -1.047309 -2.199207 -0.658014 -8.284030 0.066984 2.100438 -1.350012 12.741645 -4.662600 3.137205 12.426854 -63.011005 2.778742 9.185113 1.380013 -29.267082 -33.304214 -54.300926 -1.394955 -14.144434 3.832139 -5.102504 1.751865 60.927811 12.030681 -11.663143 0.230988 -4.723014 26.880083 36.097965 1.011162 -3.710537 1.528657 -10.824039 0.932445 -4.203708 16.334246 -6.971786 2.713523 -2.629816 5.490981 2.012594 -4.472372 -0.170682 0.310442 0.323928 -0.032794 9.015038 8.731392 2.159396 0.188567 -8.237888 -2.829989 -8.853234 -1.151250 0.368570 -0.634897 
0.375876 48.872639 0.137809 -0.001191 1.486685 -0.018351 -0.170498 -3.788725 1.807878 3.820046 2.971301 0.070220 1.783044 3.013882 0.133755 1.956490 -0.136836 -0.040442 -1.406151 -2.817365 -0.221515 -8.378439 -0.155151 1.646350 -0.927907 13.269665 -4.231155 2.631297 12.237559 -62.457493 5.741000 9.720158 1.689767 -32.373043 -33.750809 -57.112740 -1.432058 -14.292431 3.665233 -3.646419 0.923108 60.886509 12.622933 -9.485532 -0.495509 -6.511430 26.624491 36.874786 1.029895 -3.990019 2.151334 -10.359346 1.107584 -5.766606 14.240713 -6.766317 2.245364 -3.235717 5.935934 2.744939 -3.810622 -0.294309 0.095172 0.281288 -0.858677 8.152184 9.106127 2.884422 -0.732146 -8.309478 -3.628566 -8.293506 -1.457469 0.022931 -0.047890 
0.131312 48.821625 0.216306 -0.002473 1.576958 -0.011086 -0.375861 -3.997648 1.982892 3.983383 3.061457 -0.007073 1.891018 3.286345 0.065409 2.410640 -0.101804 0.158794 -1.505718 -2.714433 -0.221091 -9.826672 -0.214621 1.569823 -1.200701 13.283294 -4.341650 2.857832 13.266442 -62.591393 5.480887 9.857118 1.488755 -32.712128 -33.421837 -57.461853 -1.201953 -14.297689 3.871505 -4.278084 1.216155 60.585217 12.892469 -9.667443 -0.228547 -6.229827 26.401487 36.456413 0.986800 -4.259260 2.262701 -11.081199 1.254377 -5.757612 12.822084 -7.367657 2.311413 -2.521201 5.799534 1.608907 -2.940719 -0.205267 -0.205242 0.143645 -1.059416 8.504822 9.895926 3.409503 -0.986395 -8.687849 -3.467203 -8.303883 -1.457571 0.066921 -0.368577 
0.053144 48.812195 0.364195 0.007020 1.553672 -0.013978 -0.393563 -3.953362 1.869349 3.931432 3.232076 0.052658 1.909041 3.239612 0.293303 2.667544 0.035199 0.152611 -1.650964 -2.829418 -0.244267 -10.199574 -0.197264 1.382648 -1.103791 13.473477 -4.531580 3.144559 13.612250 -62.599369 5.647732 9.981183 1.457887 -32.550011 -33.196583 -57.317871 -1.135362 -14.069662 3.857214 -4.369009 1.173482 60.600933 12.956772 -9.565971 -0.223783 -6.319547 26.314783 36.432251 0.897261 -4.207984 2.165658 -10.557261 1.259719 -5.968795 10.524421 -7.723665 2.223915 -2.423209 5.630209 1.521422 -2.171859 -0.192073 -0.477409 0.458835 -0.834824 8.665942 9.845384 3.203110 -0.997582 -8.658934 -3.374320 -8.177274 -1.656077 0.188032 -0.437384 
0.141665 48.767002 0.514203 0.007161 1.581397 -0.010797 -0.386993 -3.933687 1.814317 3.977705 3.267065 0.199915 1.926462 3.341377 0.159114 2.661031 0.024731 0.421398 -1.659822 -2.573350 -0.237127 -10.526152 -0.076127 1.140042 -1.362265 13.612246 -4.506398 3.658938 13.805317 -62.558170 5.822397 10.019206 1.233143 -32.246284 -32.953945 -57.032578 -1.147716 -14.046594 3.985424 -4.401080 1.133457 60.592594 13.162488 -9.371811 -0.104454 -6.234344 26.122808 36.330746 0.919643 -4.259204 2.250764 -10.032239 1.105622 -6.469733 8.879435 -7.512187 2.222536 -2.124744 5.305586 1.233092 -1.467340 -0.095554 -0.532329 0.381221 -0.749342 8.414300 10.185073 3.034592 -0.940047 -8.906836 -3.300541 -7.959158 -1.632118 0.033173 -0.553491 
0.231567 48.758438 0.688755 0.003836 1.736786 -0.004614 -0.415574 -4.032309 1.704993 3.843144 3.318278 0.264506 1.909201 3.320815 0.219997 2.738795 0.025741 0.532387 -1.734316 -2.540873 -0.314309 -10.632932 -0.217839 1.024502 -1.322362 13.670010 -4.474906 3.826558 13.924234 -62.566536 5.973058 10.280719 1.274582 -31.974920 -32.921043 -56.921021 -1.058446 -14.075111 4.069617 -4.352770 1.185965 60.637836 13.187839 -9.240940 -0.266761 -6.303477 25.893572 36.557030 0.844637 -4.327833 2.107693 -9.456333 1.051737 -6.635211 7.556205 -7.641058 2.318718 -1.456980 5.153242 1.331059 -1.282686 -0.058676 -0.531813 0.462989 -0.843205 8.431026 10.580951 2.992374 -1.034526 -9.120564 -3.255166 -7.756855 -1.795315 0.053736 -0.602454 
